<?xml version="1.0" encoding="UTF-8"?>
<svg enable-background="new 0 0 138 61" version="1.1" viewBox="0 0 138 61" xmlns="http://www.w3.org/2000/svg">
 <style type="text/css">.st0{fill:#BE3626;} .st1{opacity:0.62;fill:#BEBEBF;}</style>
 <path class="st0" d="m68.3 52.6c2.4 0.1 5.2-0.7 7.3-0.7h16.5c1.1 0 2.2 0.1 3.3 0 1.2-0.1 2.2-0.6 3.3-0.8 1.3-0.3 2.6-0.1 3.8 0.3 0.9 0.3 1.4 0.4 2.3 0.1s1.9-0.6 2.8-0.8c1.7-0.5 3.3-1 5-1.6 0.1 0 0.3-0.1 0.4-0.1 2.6-1.1 12.9-7.1 12.9-18.3s-9.6-17.1-12.9-18.4c-0.5-0.2-1.1-0.3-1.6-0.5-1.8-0.4-3.7-0.7-5.6-0.8-0.7-0.1-1.5-0.1-2.2-0.2-0.7 0-1 0.1-1.6 0.3-0.5 0.2-1 0.4-1.6 0.5-1.1 0.2-2.3 0.1-3.3-0.2-0.4-0.1-0.8-0.2-1.2-0.4-0.6-0.3-1.2-0.4-1.9-0.4-1.3-0.1-2.5 0.1-3.8 0.1h-8.3c-5.3 0-10.6-1-15.8-0.8-0.6 0-1.2 0.1-1.7 0.3-2.2 1-2.1 3.9-2 5.9 0 3.5 0 6.9 0.1 10.4 0.1 4.4 0.2 8.8 0.4 13.3 0.1 3.5-0.4 8.2 1.8 11.1 0.7 1.2 2.1 1.7 3.6 1.7z"/>
 <path class="st1" d="m71.8 45.9c-0.1 0.4-0.2 0.9-0.4 1.4-0.6 1.7-0.9 3.4-2.8 4.1s-5.6 0-7.7 0h-29.8c-11.3 0-20.5-9-20.5-19.9 0-11 9.2-19.9 20.5-19.9h32.1c1.9 0 4.5-0.8 6.2 0.5 0.9 0.7 1 2.4 1.3 3.5 0.9 3.2 1 6.3 1.4 9.6 0.5 3.9 0.6 7.6 0.5 11.5-0.1 3.1 0 6.1-0.8 9.2z"/>
 <circle class="st0" cx="36" cy="35.2" r="2.9"/>
 <circle class="st0" cx="51.2" cy="20.1" r="2.9"/>
 <circle class="st0" cx="30.2" cy="32.3" r="2.9"/>
 <circle class="st0" cx="23.7" cy="32.5" r="2.9"/>
 <circle class="st0" cx="40.5" cy="41.9" r="2.9"/>
 <circle class="st0" cx="49.2" cy="33.1" r="2.9"/>
 <circle class="st0" cx="44.6" cy="46.9" r="2.9"/>
 <circle class="st0" cx="58.6" cy="19.2" r="2.9"/>
 <circle class="st0" cx="43.4" cy="29.6" r="2.9"/>
 <circle class="st0" cx="37" cy="28.1" r="2.9"/>
 <circle class="st0" cx="42.8" cy="36.1" r="2.9"/>
 <circle class="st0" cx="63.7" cy="33.4" r="2.9"/>
 <circle class="st0" cx="59.2" cy="26.7" r="2.9"/>
 <circle class="st0" cx="43.4" cy="16.2" r="2.9"/>
 <circle class="st0" cx="55.6" cy="40.4" r="2.9"/>
 <circle class="st0" cx="25.7" cy="26.7" r="2.9"/>
 <circle class="st0" cx="21.5" cy="41.9" r="2.9"/>
 <circle class="st0" cx="62.1" cy="40" r="2.9"/>
 <circle class="st0" cx="64.7" cy="46.7" r="2.9"/>
 <circle class="st0" cx="52.1" cy="46.9" r="2.9"/>
 <circle class="st0" cx="36.3" cy="47.1" r="2.9"/>
 <circle class="st0" cx="34.1" cy="41.5" r="2.9"/>
 <circle class="st0" cx="28.2" cy="38.6" r="2.9"/>
 <circle class="st0" cx="56.2" cy="33.2" r="2.9"/>
 <circle class="st0" cx="52.1" cy="27.2" r="2.9"/>
 <circle class="st0" cx="58.6" cy="46.7" r="2.9"/>
 <circle class="st0" cx="48.2" cy="40.4" r="2.9"/>
 <circle class="st0" cx="28.6" cy="45.8" r="2.9"/>
 <circle class="st0" cx="17.9" cy="36.3" r="2.9"/>
 <circle class="st0" cx="19.8" cy="23.8" r="2.9"/>
 <circle class="st0" cx="16.9" cy="30.1" r="2.9"/>
 <circle class="st0" cx="24.4" cy="19.2" r="2.9"/>
 <circle class="st0" cx="32.5" cy="18.3" r="2.9"/>
 <circle class="st0" cx="31.2" cy="24.2" r="2.9"/>
 <circle class="st0" cx="38.9" cy="21.2" r="2.9"/>
 <circle class="st0" cx="45.7" cy="23.1" r="2.9"/>
 <circle class="st0" cx="64.7" cy="23.1" r="2.9"/>
</svg>
